<svg xmlns="http://www.w3.org/2000/svg" viewBox="0 0 760 220" role="img" aria-labelledby="title desc">
  <title id="title">كمال وحيد — Kamal Waheed</title>
  <desc id="desc">A house surrounding a serving pot and spoon beside the Kamal Waheed bilingual wordmark.</desc>
  <g fill="none" stroke-linecap="round" stroke-linejoin="round">
    <path d="M42 103V68L128 17l86 51v79c0 30-18 51-46 62" stroke="#173F35" stroke-width="12"/>
    <path d="M67 54V28h19v15" stroke="#173F35" stroke-width="12"/>
    <path d="M105 61h18v18h-18zm24 0h18v18h-18zm-24 24h18v18h-18zm24 0h18v18h-18z" fill="#C89A51" stroke="none"/>
    <path d="M74 137c14-23 34-35 59-35s46 12 60 35" fill="#D46F43" stroke="#D46F43" stroke-width="2"/>
    <path d="M123 101c0-8 5-13 12-13s12 5 12 13" stroke="#D46F43" stroke-width="9"/>
    <path d="M72 143h123c-6 38-28 61-61 61-34 0-55-23-62-61z" fill="#173F35" stroke="#173F35" stroke-width="3"/>
    <path d="M72 146h122" stroke="#C89A51" stroke-width="7"/>
    <path d="M25 137c25-9 32 11 47 35 19 31 44 43 77 35" stroke="#173F35" stroke-width="15"/>
    <path d="M26 138c21-4 28 15 43 38 17 26 38 38 69 34" stroke="#C89A51" stroke-width="3"/>
  </g>
  <g fill="#173F35" text-anchor="middle">
    <text x="475" y="103" direction="rtl" unicode-bidi="bidi-override" font-family="Amiri, Cairo, serif" font-size="72" font-weight="700">كمال وحيد</text>
    <text x="475" y="151" font-family="Manrope, Arial, sans-serif" font-size="23" font-weight="700" letter-spacing="9">KAMAL WAHEED</text>
  </g>
  <path d="M301 173h348" stroke="#C89A51" stroke-width="2"/>
</svg>
